<svg width="123" height="25" fill="none" xmlns="http://www.w3.org/2000/svg"><path d="M5.473 7.803l6.83 9.062v-5.75a4.056 4.056 0 00-.34-1.882 1.816 1.816 0 00-1.578-.916v-.474h4.195v.473a1.41 1.41 0 00-.927.233 1.429 1.429 0 00-.57.774 5.316 5.316 0 00-.24 1.662V22.06h-.55L2.428 9.575v8.971c0 1.826.579 2.739 1.737 2.739v.473H0v-.473c1.272 0 1.907-.937 1.907-2.81V9.757a1.329 1.329 0 00-.489-1.228A2.529 2.529 0 00.12 8.286v-.473l5.353-.01zM26.734 20.53l.32.281a3.47 3.47 0 01-2.676 1.248 1.988 1.988 0 01-1.23-.452 2.113 2.113 0 01-.798-1.067c-.401.49-.907.882-1.479 1.147a4.146 4.146 0 01-1.827.383 3.258 3.258 0 01-2.047-.654 2.273 2.273 0 01-.909-1.883c0-1.269.79-2.135 2.367-2.598a14.709 14.709 0 013.905-.393v-1.691a3.833 3.833 0 00-.24-1.57 1.304 1.304 0 00-.538-.563 1.289 1.289 0 00-.76-.153 3.024 3.024 0 00-1.378.232c-.27.15-.41.312-.41.483 0 .171.15.393.43.675a1.257 1.257 0 01.429.936 1.206 1.206 0 01-.41.937c-.272.25-.63.383-.998.372a1.59 1.59 0 01-1.099-.403 1.298 1.298 0 01-.459-1.007c.011-.34.115-.67.3-.956.665-1.141 2.1-1.712 4.304-1.712s3.449.524 3.735 1.571c.118.433.172.88.16 1.329v4.863c0 .705.14 1.007.429 1.007a1.1 1.1 0 00.879-.363zm-4.384-.413v-3.222c-1.558 0-2.467.553-2.757 1.671-.068.24-.109.486-.12.735-.023.4.045.8.2 1.168a1.002 1.002 0 00.999.493 2.54 2.54 0 001.668-.845h.01zm6.211-7.209h-1.118v-.453l4.174-.333v9.183h.999v.413h-5.173v-.413h1.118v-8.397zm-.1-3.655a1.44 1.44 0 01.46-1.077 1.541 1.541 0 011.088-.433 1.477 1.477 0 011.079.422 1.472 1.472 0 01.43 1.088 1.368 1.368 0 01-.44 1.007 1.496 1.496 0 01-1.069.423 1.56 1.56 0 01-1.088-.423 1.339 1.339 0 01-.46-1.007zm6.153-.745h-1.179v-.413l4.214-.302v13.593h1v.412h-5.214v-.412h1.178V8.508zm49.653 12.777V8.286H82.42v-.483h6.99c4.135 0 6.199.98 6.192 2.94-.006 1.96-1.338 3.037-3.994 3.232v.06a7.648 7.648 0 013.115 1.108c.453.33.813.773 1.047 1.284.234.511.335 1.074.292 1.636a3.2 3.2 0 01-.575 1.85c-.377.541-.913.95-1.533 1.17a9.834 9.834 0 01-3.934.675h-7.6v-.473h1.847zm3.386-12.999v5.437h1.558a3.176 3.176 0 001.807-.473 1.805 1.805 0 00.829-1.611v-1.39c0-1.318-.879-2.013-2.636-2.013l-1.558.05zm0 5.91v7.048h1.398a3.969 3.969 0 002.327-.533 2.518 2.518 0 00.819-2.155v-1.51a2.578 2.578 0 00-.718-2.166 2.533 2.533 0 00-2.148-.724l-1.678.04zm18.914 5.145l.34.262a5.816 5.816 0 01-1.708 1.853 4.545 4.545 0 01-2.417.614 5.083 5.083 0 01-3.725-1.289 4.95 4.95 0 01-1.318-3.695 4.946 4.946 0 011.338-3.484 4.4 4.4 0 013.346-1.48 4.73 4.73 0 013.425 1.229 4.446 4.446 0 011.278 3.373h-5.991v1.943a4.42 4.42 0 00.329 2.013 1.728 1.728 0 001.698.876 3.974 3.974 0 002.002-.64 4.013 4.013 0 001.403-1.575zm-5.442-3.02h2.926v-1.007a5.087 5.087 0 00-.33-2.235 1.26 1.26 0 00-1.178-.544 1.134 1.134 0 00-1.169.604 4.878 4.878 0 00-.249 1.803v1.379zm7.06 5.599l-.08-3.656h.469c.14.89.585 1.703 1.259 2.296a3.4 3.4 0 002.376 1.007c1.349 0 1.998-.453 1.998-1.37 0-.916-.639-1.359-1.928-1.701l-1.997-.534a2.665 2.665 0 01-1.558-1.096 2.7 2.7 0 01-.439-1.864 2.426 2.426 0 011.118-2.185 4.407 4.407 0 012.457-.614c.463-.001.92.102 1.338.302.307.175.648.282.999.312.419 0 .629-.16.629-.483h.429l.12 2.88h-.409a3.516 3.516 0 00-1.159-1.813 2.98 2.98 0 00-1.997-.725 3.27 3.27 0 00-1.238.222c-.48.191-.729.493-.729.886 0 .752.566 1.278 1.697 1.58l2.088.554a3.407 3.407 0 011.787 1.007c.404.563.599 1.25.549 1.943a2.897 2.897 0 01-1.218 2.497 4.615 4.615 0 01-2.736.756 4.024 4.024 0 01-1.578-.333l-.569-.302a1.401 1.401 0 00-.61-.181c-.419 0-.629.221-.629.675l-.439-.06zm9.887-11.811l3.056-1.37v3.675h1.767v.433h-1.767v6.323c-.012.371.015.742.08 1.108a.774.774 0 00.798.614c.26.002.516-.068.739-.201l.22.433a3.973 3.973 0 01-2.586.936c-1.532 0-2.301-.86-2.307-2.578v-6.595h-1.169v-.433h1.159l.01-2.345z" fill="#fff"/><path d="M73.282 25h-3.995a52.484 52.484 0 00-5.343-1.148 50.912 50.912 0 00-3.725-.483l-1.438-.1h-2.486a31.361 31.361 0 00-8.988 1.59l-.86-.785.65-.222a24.377 24.377 0 011.997-.584 38.642 38.642 0 0117.976 0c.832.168 1.651.363 2.457.584 1.238.353 2.516.725 3.755 1.148zM49.594 9.787c-3.176-.383-5.822 2.295-8.609-.363 2.707 2.256 3.176 5.538 5.363 7.773 2.497 2.527 5.243 1.873 8.24 2.709l.698.563a12.386 12.386 0 00-3.23-5.033 12.246 12.246 0 00-5.198-2.91c3.485-.152 7.24 1.56 8.508 5.034-.65-3.484-1.997-7.3-5.732-7.733l-.04-.04zm3.604-.837c.24 3.525 2.786 4.854 4.494 7.411l.16.906A12.479 12.479 0 0056.584 5.7c2.756 2.175 4.494 5.93 3.255 9.363 1.748-3.02 3.166-6.866.62-9.645C58.38 3.172 54.876 3.333 54.227 0c.38 3.272-1.188 5.95-.999 8.95h-.03zm15.979-1.348c.06 3.524-1.738 7.26-5.163 8.457 3.455-.564 7.28-1.862 7.8-5.598.459-3.181-2.138-5.92.549-8.659-2.297 2.669-5.553 3.02-7.83 5.226-2.556 2.426-1.997 5.246-2.866 8.196l-.58.694a12.337 12.337 0 005.07-3.146 12.476 12.476 0 003.02-5.17z" fill="#F395C7"/><path d="M74.26 14.8c-3.375-1.65-6.57.806-8.988 3.373 2.896-2.194 6.991-1.59 9.837.433a12.188 12.188 0 00-5.936-.381 12.237 12.237 0 00-5.419 2.476l.9-.101c2.915.906 4.913 3.02 8.338 2.195 3.056-.695 5.193-3.192 8.678-3.615-3.755.715-4.564-3.02-7.42-4.39l.01.01z" fill="#F395C7"/></svg>